<?xml version="1.0"?><svg version="1.2" baseProfile="tiny-ps" viewBox="0 0 300 300" xmlns="http://www.w3.org/2000/svg" xmlns:xlink="http://www.w3.org/1999/xlink"><title>pilates-eleganceYour Brand/Organization</title><g><g fill="#fdffff" transform="matrix(.1 0 0 -.1 0 300)"><path d="M0 1500V0h3000v3000H0V1500z"/></g><g fill="#badadf" transform="matrix(.1 0 0 -.1 0 300)"><path d="m100 2883-13-71 5-109 6-108 30-81c87-236 224-365 704-660 95-58 199-127 232-152l59-45-34-30c-132-115-197-178-258-255l-71-87-54-110-55-110-17-79-17-79 6-101 5-101 25-73c14-40 45-105 68-145l42-71 86-89c99-103 177-163 313-244l98-58V0h239l78 118c43 65 98 157 123 205l45 87h530l66 14 66 14 68 34 69 33 50 46 51 47 32 54 33 54 21 84 22 85-6 90-5 90-23 60c-30 80-57 121-116 177-60 55-125 90-225 119l-73 21-228 5-227 6-44 66c-25 36-60 81-80 100l-35 34 57 35c305 184 806 378 1195 463l57 12v207h-12c-36 0-435-86-578-125-320-86-646-209-887-335l-112-58-168 84c-92 46-265 131-383 188l-215 103-110 74-110 73-85 86-85 86-34 57c-18 31-44 86-57 122l-23 64-7 68c-4 37-10 77-14 88l-7 20-13-72zm1316-1570c54-89 88-172 110-271l18-77-1-115V735l-12-65c-6-36-28-117-47-180l-36-115-61-128-61-128-58 58c-117 115-186 224-229 363l-23 75v210l18 64c38 140 113 269 240 414l78 88 10-3c6-2 30-36 54-75zm898-93 69-22 47-47 47-47 16-49 17-49V841l-21-57-22-57-42-43-43-43-69-22-68-22-212-5-213-4 24 69c13 38 34 111 47 163l23 95 1 169v168l165-5 165-5 69-22zm-944 1591c-83-26-162-85-208-159l-30-47-17-59-18-60 6-64 7-65 28-61 29-61 44-44 44-44 65-31 65-31h180l67 33 66 32 51 55 50 55 21 58 22 57v75l1 75-21 54c-42 108-107 175-210 217l-57 24-80-1c-44 0-91-4-105-8z"/></g><g fill="#75beb3" transform="matrix(.1 0 0 -.1 0 300)"><path d="M107 2905c-3-22-9-70-13-107l-7-66 13-83 12-83 24-64c13-36 41-92 61-126l37-61 95-95 96-95 93-65c51-36 173-114 272-175 99-60 217-137 261-169l82-59-44-35c-24-19-98-90-164-157l-120-121-54-88-54-87-34-98-33-98-6-89-6-89 15-70c22-103 52-175 109-262l50-78 88-86 88-86 103-69c57-38 125-80 152-94l47-25-5-12-4-13h234l72 108c40 59 95 151 123 204l52 98h509l77 16 77 16 60 28c33 16 81 45 108 66l47 37 40 60 40 60 22 71 22 71-1 100v100l-21 62c-24 77-70 150-124 199l-40 36-72 34-72 34-69 15-70 15h-422l-36 58c-19 31-56 77-81 102-25 24-46 47-46 51 0 11 136 88 290 165 279 138 553 235 983 345l37 10v196l-127-23c-490-88-921-225-1303-415l-159-79-238 116c-456 221-539 264-632 326l-93 62-80 75-81 76-48 69-48 68-22 57c-12 31-29 101-38 156l-17 100-7-40zm1382-1727c16-40 37-108 45-150l16-77V764l-16-95c-9-52-32-141-50-199l-35-105-59-123-60-124-30 22c-42 30-146 155-192 231-20 33-49 95-63 137l-26 77-6 96-6 96 18 79c23 106 64 201 131 300l55 83 76 81 76 81 49-75c26-41 61-108 77-148zm766 61 59-11 46-23c59-30 103-78 132-140l22-50 1-85v-85l-19-54-19-54-35-39-36-40-46-23-46-23-59-11-59-11h-378l7 18c26 68 66 226 80 318l18 109-6 108-6 107h285l59-11zm-898 1562-58-19-46-36c-80-62-127-141-143-241l-9-55 9-53c5-30 19-76 31-103l23-49 56-56 55-56 60-23 60-23h82l81-1 75 37 76 38 37 42c20 23 48 67 63 97l26 55v200l-32 60-31 61-47 43-46 43-57 26-57 26-75 3-75 3-58-19z"/></g><g fill="#479ca9" transform="matrix(.1 0 0 -.1 0 300)"><path d="m116 2841 6-95 18-72c35-134 118-272 231-380 120-114 240-191 549-354 202-106 327-177 335-190 3-4-19-23-48-42-83-56-237-189-315-273-123-134-209-282-248-425l-17-65V745l17-64c10-35 35-99 56-141l39-78 61-75 61-76 77-64c117-98 321-225 340-213 4 2 16 20 26 40l19 36-75 78c-41 43-89 99-107 125-45 67-98 181-117 257l-16 65 5 115 5 115 25 70c67 194 198 369 395 529l72 58 14-5c7-3 41-46 74-95l60-90 30-78c17-44 37-117 46-163l16-83v-77c0-42-7-118-15-169l-15-93-35-107-34-107-65-130c-36-72-92-173-125-225l-60-95 36-3c19-2 41-1 48 2 18 6 150 208 209 317l47 87 282 5 282 5 59 17c33 9 86 30 119 46l59 30 45 42c25 23 58 60 74 83l28 42 26 75 25 76v197l-16 55c-34 115-87 189-177 249l-59 40-81 27-82 26-241 5-240 4-24 44c-12 24-49 73-81 108l-58 63 97 55c302 174 668 319 1055 418l167 43v187h-14c-38 0-310-55-476-96-350-87-655-197-937-336l-163-81-162 81c-90 45-262 129-383 187l-220 106-111 74-112 74-77 77-77 76-42 66c-54 84-84 163-102 272l-14 85 6-94zm2214-1619c30-12 72-35 92-52l37-30 28-58 28-57V825l-33-67-32-66-36-27c-20-15-59-37-88-49l-51-20-227-4-228-4v9c0 4 14 51 30 102 37 117 56 218 65 336l6 90-9 63-9 64 186-4 186-4 55-22zm-951 1584c-99-26-186-99-236-196l-28-55v-200l27-57 26-57 45-45 45-45 54-28 53-28h210l55 27 55 27 44 43 44 43 31 65 31 65v90l-1 90-22 49c-30 67-81 127-139 164l-48 31-60 16c-70 18-123 18-186 1z"/></g><g fill="#348da5" transform="matrix(.1 0 0 -.1 0 300)"><path d="M126 2786c23-228 143-420 368-588 101-75 193-130 447-264 178-93 329-180 329-188 0-2-26-20-58-41-215-142-415-355-505-536l-37-76-21-83-21-83 4-111 4-111 26-73c15-40 46-105 69-145l43-72 100-101 101-102 100-64c55-36 121-77 146-91l47-27 10 13c5 6 16 26 25 42l15 31-65 64c-117 117-186 229-225 367l-21 78v190l21 77c30 106 63 177 129 277l57 86 106 105 105 106 92 68 91 68 6 21c3 12 6 89 6 170v148l-116-61c-64-34-113-56-109-51l6 11-228 111c-125 61-295 144-378 184l-150 74-105 69c-230 153-363 317-405 503l-15 64 6-59zm1278 24c-22-5-63-19-90-31l-49-23-48-48-48-48-27-58-27-57v-95l1-95 27-56 27-56 55-52 55-52 47-22 48-22h200l53 28c30 16 73 46 96 67l42 39 26 48 26 48 12 59 12 59-7 52-6 52-29 61-28 60-42 42-42 42-61 28-62 29-60 5-60 5-41-9zm203-1221c-42-29-77-56-77-61s18-31 40-59c80-101 138-225 165-355l15-69V812l-15-79c-8-43-29-122-46-176l-32-99-68-136c-37-76-95-179-128-230l-60-92h88l75 113c41 61 97 153 123 204l49 92 279 4 280 4 82 25 81 24 57 35 57 34 45 50c55 60 89 125 108 207l15 63v150l-15 64c-9 35-27 86-42 113l-26 48-52 49-52 49-60 30c-32 17-86 38-119 47l-59 17-235 6-235 5-44 68c-25 38-61 85-81 104l-36 35-77-51zm610-340 78-10 55-25c69-31 105-65 137-129l26-50 5-85 5-86-17-56-16-57-33-43-32-43-70-35-69-35-239-3-238-4 16 38c22 54 63 208 75 289l11 70v111c0 61-3 123-7 138l-6 26h120c66 0 156-5 199-11z"/></g></g></svg>