<?xml version="1.0" encoding="UTF-8"?>
<!DOCTYPE svg PUBLIC "-//W3C//DTD SVG 1.2 Tiny//EN" "http://www.w3.org/Graphics/SVG/1.2/DTD/svg12-tiny.dtd">
<svg xmlns="http://www.w3.org/2000/svg" version="1.2" width="11in" height="8.5in" viewBox="0 0 11000 8500">
 <defs>
  <linearGradient id="id0" gradientUnits="userSpaceOnUse" x1="900.067" y1="4207.81" x2="7173.15" y2="4207.81">
   <stop offset="0" style="stop-color:#318AA3"/>
   <stop offset="1" style="stop-color:#75BFB1"/>
  </linearGradient>
 </defs>
 <g id="Layer_1">
  <g id="LayerGroup">
   <circle fill="#318AA3" cx="1971" cy="2532" r="464"/>
   <path fill="url(#id0)" d="M4583 2572c1010,-70 1925,58 2590,321 -596,-154 -1321,-218 -2103,-164 -2034,140 -3682,1028 -3682,1981 0,480 418,886 1092,1152 -955,-246 -1580,-721 -1580,-1308 0,-954 1649,-1841 3683,-1982z"/>
   <path fill="#318AA3" d="M512 2508c88,95 197,184 332,268 136,84 298,164 462,240 190,88 395,180 585,290 -128,73 -245,150 -351,230 -131,-113 -269,-193 -413,-280 -153,-93 -314,-193 -446,-294 -343,-264 -522,-592 -419,-1041 7,-29 7,-29 11,24 16,237 76,387 239,563zm1724 1041c11,11 23,21 34,32 417,394 260,1033 48,1494 -236,512 -698,1029 -1136,1373 -95,75 -156,117 -186,138 -31,22 -31,24 56,-84 505,-627 1359,-1679 868,-2511 -26,-45 -55,-90 -88,-134 115,-108 251,-211 404,-308z"/>
   <path fill="#75BFB1" d="M1015 6573l-19 13c-31,22 -31,24 56,-84 505,-627 1359,-1679 868,-2511 -26,-45 -55,-90 -88,-134 60,-56 126,-111 196,-164 788,888 -179,2117 -1013,2880zm525 -3037c-131,-113 -269,-193 -413,-280 -153,-93 -314,-193 -446,-294 -343,-264 -522,-592 -419,-1041 4,-18 6,-25 7,-14 -3,17 -4,28 -5,54 -1,42 0,125 20,231 117,627 788,853 1279,1135 52,30 100,60 146,91 -59,39 -116,78 -169,118z"/>
   <!-- Other elements with inline style adjustments -->
  </g>
  <rect fill="none" x="123" y="1799" width="10754" height="4902"/>
 </g>
</svg>
