<?xml version="1.0" encoding="UTF-8"?>
<!DOCTYPE svg PUBLIC "-//W3C//DTD SVG 1.1//EN" "http://www.w3.org/Graphics/SVG/1.1/DTD/svg11.dtd">
<!-- Creator: CorelDRAW X7 -->
<svg xmlns="http://www.w3.org/2000/svg" xml:space="preserve" width="11in" height="8.5in" version="1.2" style="shape-rendering:geometricPrecision; text-rendering:geometricPrecision; image-rendering:optimizeQuality; fill-rule:evenodd; clip-rule:evenodd"
viewBox="0 0 11000 8500"
 xmlns:xlink="http://www.w3.org/1999/xlink">
 <defs>
  <style type="text/css">
   <![CDATA[
    .fil5 {fill:none}
    .fil0 {fill:#318AA3}
    .fil2 {fill:#75BFB1}
    .fil3 {fill:#318AA3;fill-rule:nonzero}
    .fil4 {fill:#75BFB1;fill-rule:nonzero}
    .fil1 {fill:url(#id0)}
   ]]>
  </style>
  <linearGradient id="id0" gradientUnits="userSpaceOnUse" x1="900.067" y1="4207.81" x2="7173.15" y2="4207.81">
   <stop offset="0" style="stop-opacity:1; stop-color:#318AA3"/>
   <stop offset="1" style="stop-opacity:1; stop-color:#75BFB1"/>
  </linearGradient>
 </defs>
 <g id="Layer_x0020_1">
  <metadata id="CorelCorpID_0Corel-Layer"/>
  <g id="_1850955287760">
   <circle class="fil0" cx="1971" cy="2532" r="464"/>
   <path class="fil1" d="M4583 2572c1010,-70 1925,58 2590,321 -596,-154 -1321,-218 -2103,-164 -2034,140 -3682,1028 -3682,1981 0,480 418,886 1092,1152 -955,-246 -1580,-721 -1580,-1308 0,-954 1649,-1841 3683,-1982z"/>
   <path class="fil0" d="M512 2508c88,95 197,184 332,268 136,84 298,164 462,240 190,88 395,180 585,290 -128,73 -245,150 -351,230 -131,-113 -269,-193 -413,-280 -153,-93 -314,-193 -446,-294 -343,-264 -522,-592 -419,-1041 7,-29 7,-29 11,24 16,237 76,387 239,563zm1724 1041c11,11 23,21 34,32 417,394 260,1033 48,1494 -236,512 -698,1029 -1136,1373 -95,75 -156,117 -186,138 -31,22 -31,24 56,-84 505,-627 1359,-1679 868,-2511 -26,-45 -55,-90 -88,-134 115,-108 251,-211 404,-308z"/>
   <path class="fil2" d="M1015 6573l-19 13c-31,22 -31,24 56,-84 505,-627 1359,-1679 868,-2511 -26,-45 -55,-90 -88,-134 60,-56 126,-111 196,-164 788,888 -179,2117 -1013,2880zm525 -3037c-131,-113 -269,-193 -413,-280 -153,-93 -314,-193 -446,-294 -343,-264 -522,-592 -419,-1041 4,-18 6,-25 7,-14 -3,17 -4,28 -5,54 -1,42 0,125 20,231 117,627 788,853 1279,1135 52,30 100,60 146,91 -59,39 -116,78 -169,118z"/>
   <path class="fil0" d="M3570 4445c0,92 -15,178 -46,257 -30,79 -75,148 -136,206 -60,59 -136,105 -227,139 -91,34 -197,51 -318,51l-536 0 11 -23c30,-65 58,-133 85,-204l399 0c165,0 287,-36 364,-109 77,-73 116,-177 116,-314 0,-133 -41,-234 -123,-303 -81,-69 -204,-104 -368,-104l-276 0c-15,-80 -39,-157 -75,-230l386 0c124,0 234,16 326,46 93,30 171,73 232,128 62,56 109,123 140,201 31,78 46,165 46,259z"/>
   <polygon class="fil3" points="3935,5919 3935,4301 4204,4301 4204,5919 "/>
   <polygon class="fil3" points="4615,5919 4615,3698 4885,3698 4885,5919 "/>
   <path class="fil3" d="M5709 5949c-163,0 -285,-43 -367,-128 -82,-86 -123,-204 -123,-353 0,-107 21,-195 61,-263 40,-68 93,-122 159,-160 65,-39 140,-66 223,-82 84,-14 169,-22 256,-25l364 -6 0 -88c0,-67 -7,-124 -21,-170 -14,-47 -36,-85 -64,-114 -29,-29 -65,-50 -109,-64 -43,-13 -95,-20 -154,-20 -52,0 -99,4 -140,11 -43,8 -79,21 -110,41 -31,19 -56,45 -75,79 -19,33 -31,75 -37,126l-282 -25c10,-64 29,-123 57,-176 27,-53 67,-99 119,-139 51,-39 116,-69 193,-90 77,-22 171,-32 281,-32 204,0 357,46 461,140 102,93 154,228 154,404l0 697c0,80 10,140 31,181 21,40 61,60 119,60 16,0 30,-1 45,-3 15,-2 30,-4 44,-7l0 167c-34,8 -68,14 -101,18 -34,4 -69,6 -107,6 -51,0 -95,-7 -131,-20 -37,-14 -66,-34 -89,-62 -23,-27 -40,-61 -52,-101 -12,-41 -20,-88 -23,-142l-9 0c-29,52 -61,99 -95,141 -35,42 -74,78 -120,107 -46,29 -98,52 -157,68 -58,16 -126,24 -201,24zm60 -202c86,0 161,-16 226,-47 65,-31 118,-71 161,-120 42,-49 74,-102 94,-160 21,-57 32,-112 32,-165l0 -133 -295 6c-66,1 -129,6 -188,14 -60,9 -112,26 -157,50 -45,25 -81,60 -107,105 -27,44 -40,103 -40,176 0,87 24,155 71,203 48,47 115,71 203,71z"/>
   <path class="fil3" d="M7621 5907c-41,11 -82,20 -124,26 -43,7 -92,10 -147,10 -215,0 -323,-122 -323,-366l0 -1080 -187 0 0 -196 198 0 79 -361 180 0 0 361 299 0 0 196 -299 0 0 1021c0,78 12,132 37,164 26,31 70,47 133,47 25,0 50,-2 75,-6 24,-4 51,-9 79,-15l0 199z"/>
   <path class="fil3" d="M8056 5165c0,85 8,164 26,235 18,71 45,133 81,184 37,52 84,92 141,120 57,29 125,43 206,43 117,0 211,-23 281,-70 71,-47 119,-107 144,-178l236 67c-17,45 -41,90 -71,136 -31,45 -72,86 -123,122 -50,37 -114,67 -191,90 -76,24 -168,35 -276,35 -240,0 -423,-71 -548,-214 -125,-142 -188,-354 -188,-636 0,-151 19,-279 57,-385 38,-105 90,-191 156,-256 66,-66 142,-114 231,-143 87,-29 181,-44 281,-44 136,0 249,22 341,66 91,43 165,104 220,181 55,77 95,168 118,272 24,105 36,218 36,339l0 36 -1158 0zm879 -205c-15,-171 -59,-295 -131,-373 -72,-78 -175,-117 -310,-117 -45,0 -93,7 -142,21 -50,15 -95,41 -138,77 -41,37 -77,87 -106,150 -29,64 -45,144 -49,242l876 0z"/>
   <path class="fil3" d="M10767 5471c0,77 -15,144 -44,204 -30,59 -72,109 -128,149 -55,41 -124,72 -205,93 -81,22 -173,32 -278,32 -93,0 -178,-7 -253,-22 -75,-14 -141,-37 -198,-69 -56,-32 -104,-74 -142,-127 -38,-52 -67,-116 -84,-192l238 -46c23,87 70,150 142,190 72,41 171,61 298,61 58,0 111,-4 159,-12 48,-8 90,-22 124,-41 35,-19 62,-45 82,-78 19,-32 29,-73 29,-121 0,-48 -12,-88 -35,-120 -23,-31 -54,-58 -95,-79 -41,-21 -90,-39 -149,-54 -58,-16 -122,-33 -192,-52 -64,-17 -129,-36 -192,-57 -64,-20 -122,-49 -173,-83 -51,-34 -92,-77 -124,-128 -32,-51 -48,-115 -48,-191 0,-148 52,-261 157,-338 105,-77 258,-116 460,-116 178,0 319,31 424,94 105,63 171,163 199,301l-242 31c-9,-42 -25,-78 -49,-106 -24,-29 -53,-52 -86,-69 -35,-18 -72,-30 -115,-38 -42,-7 -86,-11 -132,-11 -121,0 -211,18 -269,56 -58,37 -87,93 -87,169 0,43 11,80 32,108 22,28 51,52 90,72 38,19 84,37 138,51 54,14 113,29 178,45 43,12 86,23 131,36 45,12 88,27 131,44 42,18 82,39 119,62 37,24 70,52 98,84 28,34 50,72 66,116 17,44 25,95 25,152z"/>
   <polygon class="fil4" points="1769,6591 1769,6091 2148,6091 2148,6146 1837,6146 1837,6307 2127,6307 2127,6361 1837,6361 1837,6536 2163,6536 2163,6591 "/>
   <polygon id="1" class="fil4" points="2987,6591 2987,6091 3054,6091 3054,6536 3307,6536 3307,6591 "/>
   <polygon id="2" class="fil4" points="4124,6591 4124,6091 4503,6091 4503,6146 4191,6146 4191,6307 4482,6307 4482,6361 4191,6361 4191,6536 4518,6536 4518,6591 "/>
   <path id="3" class="fil4" d="M5318 6339c0,-39 5,-74 16,-106 10,-31 26,-58 47,-80 21,-22 47,-39 78,-51 31,-12 67,-18 108,-18 31,0 58,2 81,8 23,5 43,13 60,23 17,10 32,23 43,37 12,15 22,31 31,49l-65 19c-6,-12 -13,-23 -22,-33 -9,-10 -19,-19 -32,-26 -12,-7 -26,-12 -42,-16 -16,-4 -35,-6 -56,-6 -30,0 -56,5 -79,14 -22,10 -40,23 -55,41 -15,17 -26,38 -33,63 -7,24 -11,52 -11,82 0,30 4,57 12,82 8,25 19,47 35,65 15,18 34,32 57,42 23,10 49,15 79,15 20,0 38,-2 54,-5 17,-3 32,-8 45,-13 14,-5 25,-11 36,-18 10,-6 18,-13 25,-19l0 -90 -150 0 0 -57 213 0 0 172c-12,12 -25,23 -40,33 -15,10 -32,19 -50,27 -19,8 -39,14 -62,18 -22,5 -46,7 -71,7 -42,0 -79,-6 -110,-19 -32,-13 -58,-31 -79,-54 -21,-23 -37,-50 -47,-82 -11,-32 -16,-67 -16,-104z"/>
   <path id="4" class="fil4" d="M6994 6591l-57 -146 -228 0 -57 146 -71 0 204 -500 77 0 201 500 -69 0zm-142 -364c-3,-9 -7,-19 -10,-29 -4,-9 -7,-18 -9,-26 -3,-8 -5,-15 -7,-20 -2,-5 -3,-9 -3,-10 -1,1 -2,5 -3,10 -2,6 -4,12 -7,20 -3,8 -6,17 -9,27 -3,10 -7,19 -10,29l-64 164 187 0 -65 -165z"/>
   <path id="5" class="fil4" d="M8182 6591l-268 -426c0,12 1,23 2,35 0,9 1,20 1,30 0,11 0,21 0,29l0 332 -60 0 0 -500 79 0 270 429c0,-12 -1,-24 -2,-35 0,-10 -1,-21 -1,-33 -1,-11 -1,-22 -1,-33l0 -328 61 0 0 500 -81 0z"/>
   <path id="6" class="fil4" d="M9336 6139c-28,0 -53,5 -75,14 -22,10 -40,23 -55,41 -15,17 -26,38 -33,63 -8,24 -12,52 -12,82 0,30 4,57 13,82 8,25 19,47 35,64 15,18 34,32 56,42 22,10 47,15 74,15 20,0 37,-2 53,-7 16,-5 31,-13 43,-22 13,-9 25,-20 35,-33 10,-12 19,-26 27,-42l55 28c-9,19 -20,36 -33,52 -13,16 -29,30 -47,42 -18,12 -38,21 -60,28 -23,7 -48,10 -76,10 -41,0 -76,-6 -106,-19 -31,-13 -56,-31 -77,-54 -20,-23 -35,-50 -45,-82 -11,-32 -16,-67 -16,-104 0,-39 6,-74 16,-106 11,-31 27,-58 48,-80 20,-22 46,-39 76,-51 30,-12 65,-18 104,-18 53,0 97,10 133,31 36,21 62,52 79,93l-65 21c-4,-12 -11,-23 -19,-34 -8,-11 -18,-20 -30,-29 -12,-8 -26,-14 -42,-19 -16,-5 -35,-8 -56,-8z"/>
   <polygon id="7" class="fil4" points="10373,6591 10373,6091 10752,6091 10752,6146 10440,6146 10440,6307 10731,6307 10731,6361 10440,6361 10440,6536 10766,6536 10766,6591 "/>
   <circle class="fil2" cx="4070" cy="3827" r="156"/>
  </g>
  <rect class="fil5" x="123" y="1799" width="10754" height="4902"/>
 </g>
</svg>
