<?xml version="1.0"?><svg version="1.2" baseProfile="tiny-ps" viewBox="0 0 300 300" xmlns="http://www.w3.org/2000/svg" xmlns:xlink="http://www.w3.org/1999/xlink"><title>pilates-elegance-logo</title><g><g fill="#71bdb0" transform="matrix(.1 0 0 -.1 0 300)"><path d="m55 2468-7-18 4-77 4-78 26-57c52-112 128-181 348-317 63-39 128-81 143-93l28-23-70-62-69-63-45-67c-55-84-76-138-84-213l-6-58 22-70 21-70 45-60 45-60 73-55c39-30 88-63 107-72 19-10 36-19 38-20 8-7-117-186-225-322-40-51-73-95-73-98 0-26 282 234 361 332l34 43 65-24c109-39 118-39 42 3-41 22-76 42-78 44-3 3 15 36 39 73 24 38 54 88 65 110l21 42 168 4 168 4 30 14c17 8 49 27 72 42l41 28 29 57 28 58v76l-1 76-25 49-25 49-48 32c-26 18-64 37-84 44l-37 11-132 5-132 6-6 16c-3 9-21 33-40 53l-36 37 43 25c273 159 657 273 1073 317l110 11h430l127-16c70-9 157-22 195-30 37-8 69-13 71-11 11 11-257 77-408 100l-105 16-217 6-217 6-143-12c-374-32-742-126-1008-259l-95-48-195 94-195 94-82 54-82 55-36 42c-20 23-48 63-61 89l-24 48-8 52-9 53-8-17zm718-875 35-68 12-65 12-65-6-61c-9-84-30-162-72-260l-36-84h-27l-47 58c-26 31-59 82-73 112l-26 55v180l32 68c18 38 42 80 54 95 36 47 90 102 98 102 5 0 24-30 44-67zm450-14 38-10 33-30 34-29 11-44 11-44-9-46c-4-25-16-57-25-72l-18-26-41-19-42-19H971l19 55c10 30 24 90 30 132l10 78-6 42-6 43h167l38-11zm-503 838-34-11-37-37-38-38-10-38c-15-53-14-87 5-131 28-67 83-112 153-126l34-6 41 11c22 6 56 22 74 36l32 24 20 39 20 39v50c0 87-37 146-115 182l-40 19-35-1c-19-1-51-6-70-12z"/></g><g fill="#4da1a9" transform="matrix(.1 0 0 -.1 0 300)"><path d="m65 2416 5-69 29-63 30-63 48-52c62-67 125-109 319-214 88-48 163-90 167-94l8-8-48-35c-26-19-74-58-105-87l-57-53-44-66c-55-83-76-137-84-212l-6-58 22-70 21-70 45-60 45-60 73-55c68-52 126-87 144-87 5 0 13 8 20 19l12 18-50 54-50 54-32 65-32 65v180l36 75 37 75 43 51c43 49 128 125 148 132l10 3 36-53 35-53 20-64 20-63v-162l-16-65c-46-187-200-424-424-652l-95-97 44 32c52 36 253 232 302 293l34 43 65-24c109-39 118-39 42 3-41 22-76 42-78 44-3 3 15 36 39 73 24 38 54 88 65 110l21 42 168 4 168 4 30 14c17 8 49 27 72 42l41 28 29 57 28 58v76l-1 76-25 49-25 49-48 32c-26 18-64 37-84 44l-37 11-132 5-132 6-6 16c-3 9-21 33-40 53l-36 37 43 25c280 163 671 277 1098 319l125 12v60l-85 3c-116 5-334-14-513-44-258-44-524-126-717-222l-95-48-195 94-195 94-82 54-82 55-36 42c-49 56-83 125-95 189l-9 53 4-69zm1158-837 38-10 33-30 34-29 11-44 11-44-9-46c-4-25-16-57-25-72l-18-26-41-19-42-19H971l19 55c10 30 24 90 30 132l10 78-6 42-6 43h167l38-11zm-503 838-34-11-37-37-38-38-10-38c-15-53-14-87 5-131 28-67 83-112 153-126l34-6 41 11c22 6 56 22 74 36l32 24 20 39 20 39v50c0 87-37 146-115 182l-40 19-35-1c-19-1-51-6-70-12z"/></g><g fill="#328da4" transform="matrix(.1 0 0 -.1 0 300)"><path d="m61 2454 1-19 5 13c3 7 2 16-1 19-3 4-6-2-5-13zm659-37-34-11-37-37-38-38-10-38c-15-53-14-87 5-131 28-67 83-112 153-126l34-6 41 11c22 6 56 22 74 36l32 24 20 39 20 39v50c0 87-37 146-115 182l-40 19-35-1c-19-1-51-6-70-12zm-649-27c-1-35 39-128 79-184l34-47 71-54 70-54 156-84c86-46 167-91 178-99l22-15-55-37c-30-20-79-59-110-87l-55-51-44-66c-55-83-76-137-84-212l-6-58 22-70 21-70 45-60 45-60 73-55c64-49 126-87 141-87 3 0 10 9 16 20l11 20-52 63-52 62-26 55-26 55v180l33 69c18 39 49 90 69 114 48 59 151 162 162 162 15 0 82-108 104-168l21-57v-210l-28-80c-39-114-107-237-197-359l-78-105-108-113-108-112 45 34c55 43 234 219 281 277l34 43 65-24c109-39 118-39 42 3-41 22-76 42-78 44-3 3 15 36 39 73 24 38 54 88 65 110l21 42 168 4 168 4 30 14c17 8 49 27 72 42l41 28 29 57 28 58v76l-1 76-25 49-25 49-48 32c-26 18-64 37-84 44l-37 11-132 5-132 6-6 16c-3 9-21 33-41 53l-35 37 40 23c23 13 41 27 41 31 0 5-10 1-22-7-12-9-26-16-30-16h-8v139l31 16c17 9 29 19 26 21-3 3-54-19-114-48l-108-54-195 94-195 94-82 54-82 55-36 42c-38 43-72 102-86 147l-7 25-1-25zm1152-811 38-10 33-30 34-29 11-44 11-44-9-46c-4-25-16-57-25-72l-18-26-41-19-42-19H971l19 55c10 30 24 90 30 132l10 78-6 42-6 43h167l38-11z"/></g></g></svg>